<svg width="50" height="50" viewBox="0 0 50 50" fill="none" xmlns="http://www.w3.org/2000/svg">
<path d="M40.0701 20.5351C40.0701 32.9746 26.027 44.4952 26.027 44.4952C25.2065 45.1684 23.8636 45.1684 23.0431 44.4952C23.0431 44.4952 9 32.9746 9 20.5351C9.00016 11.9554 15.9554 5.00012 24.5351 5.00012C33.1148 5.00012 40.0701 11.9554 40.0701 20.5351Z" fill="white"/>
<circle cx="24.2002" cy="20.2001" r="12" fill="#1B24FF"/>
<path d="M34.3392 18.3563C34.7163 17.9417 34.6799 17.3061 34.2579 16.9371L24.9621 8.80323C24.5402 8.43425 23.8637 8.44198 23.4507 8.82066L14.1233 17.3708C13.7103 17.7494 13.69 18.3842 14.0784 18.788L14.3123 19.0315C14.7002 19.4353 15.3273 19.4834 15.7121 19.1387L16.4091 18.5144V27.6537C16.4091 28.2144 16.8635 28.6683 17.4238 28.6683H21.0596C21.62 28.6683 22.0743 28.2144 22.0743 27.6537V21.2599H26.7119V27.6537C26.7038 28.214 27.1047 28.6679 27.665 28.6679H31.5181C32.0784 28.6679 32.5328 28.214 32.5328 27.6533V18.6431C32.5328 18.6431 32.7253 18.8118 32.9628 19.0206C33.2 19.2289 33.698 19.0619 34.075 18.6468L34.3392 18.3563Z" fill="white"/>
</svg>
