<svg width="50" height="50" viewBox="0 0 50 50" fill="none" xmlns="http://www.w3.org/2000/svg">
<path d="M40.0701 20.5351C40.0701 32.9746 26.027 44.4952 26.027 44.4952C25.2065 45.1684 23.8636 45.1684 23.0431 44.4952C23.0431 44.4952 9 32.9746 9 20.5351C9.00016 11.9554 15.9554 5.00012 24.5351 5.00012C33.1148 5.00012 40.0701 11.9554 40.0701 20.5351Z" fill="white"/>
<circle cx="24.2002" cy="20.2001" r="12" fill="#6AD300"/>
<path d="M30.5933 8.88208C30.5933 8.88208 28.6116 10.8047 26.4684 11.5799C10.5972 17.3205 17.2907 28.5075 17.5091 28.5444C17.5091 28.5444 18.3991 26.9945 19.6013 26.1105C27.2302 20.5022 28.7807 14.0468 28.7807 14.0468C28.7807 14.0468 27.0688 21.8147 20.2818 26.6482C18.7828 27.7152 17.7678 30.3423 17.3381 32.9681C17.3381 32.9681 18.4007 32.5388 18.8576 32.4225C19.0358 31.2598 19.4083 30.1464 20.0381 29.1518C29.5238 30.2812 32.6305 22.6378 33.0364 19.9726C33.9943 13.678 30.5933 8.88208 30.5933 8.88208Z" fill="white"/>
</svg>
