<svg width="50" height="50" viewBox="0 0 50 50" fill="none" xmlns="http://www.w3.org/2000/svg">
<path d="M40.0701 20.5351C40.0701 32.9746 26.027 44.4952 26.027 44.4952C25.2065 45.1684 23.8636 45.1684 23.0431 44.4952C23.0431 44.4952 9 32.9746 9 20.5351C9.00016 11.9554 15.9554 5.00012 24.5351 5.00012C33.1148 5.00012 40.0701 11.9554 40.0701 20.5351Z" fill="white"/>
<circle cx="24.2002" cy="20.2001" r="12" fill="#FF7A00"/>
<g clip-path="url(#clip0)">
<path d="M27.7047 19.5519C26.8767 18.2603 25.4666 17.489 23.9325 17.489C22.3984 17.489 20.9883 18.2603 20.1605 19.5519L18.1654 22.6643C17.8344 23.1806 17.6816 23.7772 17.7236 24.3891C17.7656 25.0012 17.9985 25.5712 18.397 26.0378C18.7958 26.504 19.3228 26.8226 19.921 26.9594C20.5191 27.0961 21.1323 27.0377 21.6941 26.7908L21.7318 26.7741C23.1454 26.1651 24.7607 26.1707 26.1707 26.7908C26.5345 26.9507 26.9198 27.0315 27.3087 27.0315C27.5201 27.0315 27.7327 27.0075 27.9435 26.9595C28.5416 26.8229 29.0686 26.5043 29.4676 26.0379C29.8663 25.5717 30.0993 25.0016 30.1414 24.3894C30.1835 23.7772 30.0308 23.1808 29.6998 22.6642L27.7047 19.5519Z" fill="white"/>
<path d="M18.7029 19.5477C19.2964 19.3198 19.7473 18.8415 19.9725 18.2009C20.1868 17.5914 20.1693 16.9032 19.9229 16.2631C19.6764 15.6234 19.228 15.1012 18.6603 14.7925C18.064 14.4683 17.4088 14.4156 16.8163 14.644C15.6242 15.1023 15.0771 16.5755 15.5969 17.9286C16.0122 19.0056 16.9807 19.6855 17.9598 19.6855C18.2098 19.6855 18.4606 19.6411 18.7029 19.5477Z" fill="white"/>
<path d="M22.5736 17.1094C24.0638 17.1094 25.2763 15.7281 25.2763 14.0301C25.2763 12.3318 24.0638 10.9502 22.5736 10.9502C21.0834 10.9502 19.8711 12.3318 19.8711 14.0301C19.8711 15.7281 21.0834 17.1094 22.5736 17.1094Z" fill="white"/>
<path d="M27.2413 17.8659H27.2414C27.4707 17.942 27.7046 17.9783 27.9375 17.9783C29.0243 17.9783 30.0835 17.1873 30.4876 15.9716C30.7204 15.2718 30.7051 14.5318 30.4445 13.8882C30.1719 13.2144 29.6667 12.7253 29.0218 12.5109C28.3767 12.2966 27.6792 12.386 27.0574 12.7625C26.4635 13.1221 26.0083 13.7057 25.7759 14.4055C25.2852 15.8817 25.9426 17.4341 27.2413 17.8659Z" fill="white"/>
<path d="M32.9335 17.5065L32.9331 17.5061C31.9054 16.7469 30.3684 17.076 29.5066 18.24C28.6456 19.4046 28.7802 20.9703 29.8064 21.73C30.1807 22.0073 30.6229 22.1398 31.0755 22.1398C31.8643 22.1398 32.6849 21.7372 33.2335 20.9968C34.0943 19.8322 33.9599 18.2665 32.9335 17.5065Z" fill="white"/>
</g>
<defs>
<clipPath id="clip0">
<rect width="18.4" height="18.4" fill="white" transform="translate(15.4004 9.80017)"/>
</clipPath>
</defs>
</svg>
