<svg width="50" height="50" viewBox="0 0 50 50" fill="none" xmlns="http://www.w3.org/2000/svg">
<path d="M40.0701 20.5351C40.0701 32.9746 26.027 44.4952 26.027 44.4952C25.2065 45.1684 23.8636 45.1684 23.0431 44.4952C23.0431 44.4952 9 32.9746 9 20.5351C9.00016 11.9554 15.9554 5.00012 24.5351 5.00012C33.1148 5.00012 40.0701 11.9554 40.0701 20.5351Z" fill="white"/>
<circle cx="24.2002" cy="22.2004" r="12" fill="#FF4747"/>
<path d="M15.4359 17.9059H20.6544V12.7001C20.6544 11.9825 21.2355 11.3999 21.9529 11.3999H27.1466C27.8628 11.3999 28.4437 11.9823 28.4437 12.7001V17.9047H33.635C34.3537 17.9047 34.9347 18.4859 34.9347 19.2049V24.4068C34.9347 25.1271 34.3537 25.7095 33.635 25.7095H28.4437V30.8997C28.4437 31.6186 27.8627 32.1999 27.1466 32.1999H21.9529C21.2355 32.1999 20.6544 31.6186 20.6544 30.8997V25.7095H15.4359C14.7171 25.7095 14.1348 25.1271 14.1348 24.4068V19.2049C14.1348 18.4871 14.7171 17.9059 15.4359 17.9059Z" fill="white"/>
</svg>
