<svg width="38" height="38" viewBox="0 0 38 38" fill="none" xmlns="http://www.w3.org/2000/svg">
<g filter="url(#filter0_d)">
<path d="M31.2128 15.6067C31.2128 25.0606 20.5401 33.8163 20.5401 33.8163C19.9165 34.328 18.8959 34.328 18.2723 33.8163C18.2723 33.8163 7.59961 25.0606 7.59961 15.6067C7.59973 9.08603 12.8857 3.80005 19.4062 3.80005C25.9268 3.80005 31.2128 9.08603 31.2128 15.6067Z" fill="white"/>
</g>
<path d="M28.1199 15.3519C28.1199 20.3887 24.0367 24.4719 18.9999 24.4719C13.963 24.4719 9.87988 20.3887 9.87988 15.3519C9.87988 10.3151 13.963 6.23193 18.9999 6.23193C24.0367 6.23193 28.1199 10.3151 28.1199 15.3519Z" fill="#17233E"/>
<path d="M19.1096 22.1093C18.9983 22.2651 18.8744 22.4125 18.7378 22.5492C18.0754 23.2118 17.1946 23.5767 16.2577 23.5767C15.3209 23.5767 14.4401 23.2118 13.7777 22.5492C12.4103 21.1814 12.4103 18.9557 13.7777 17.5879C13.9153 17.4503 14.0621 17.3258 14.2167 17.2145C13.8671 16.6619 13.5719 16.1093 13.3457 15.5773C13.3376 15.5581 13.33 15.5391 13.322 15.52C12.9309 15.7515 12.5689 16.0323 12.2396 16.3617C10.1102 18.4918 10.1102 21.9577 12.2396 24.0878C13.2712 25.1197 14.6428 25.688 16.1017 25.688C17.5605 25.688 18.9321 25.1197 19.9637 24.0878C20.2884 23.7629 20.5703 23.3977 20.8032 23.0043C20.7845 22.9964 20.7659 22.989 20.7471 22.981C20.2151 22.7547 19.6623 22.4592 19.1096 22.1093V22.1093Z" fill="white"/>
<path d="M23.8862 17.3875C23.0753 17.4826 22.332 17.8341 21.7755 18.3907L21.7535 18.4128C21.4808 18.6856 21.1193 18.8354 20.7348 18.8355C20.7348 18.8355 20.7346 18.8355 20.7345 18.8355C20.3499 18.8355 19.9884 18.6857 19.7165 18.4137L17.8648 16.5614C17.3039 16.0002 17.3039 15.0872 17.8649 14.5262L17.9684 14.4226C18.4917 13.8991 18.8286 13.1999 18.9325 12.434C18.2234 12.0071 17.5262 11.685 16.8969 11.498C15.4313 11.0627 14.6629 11.4321 14.2763 11.8188C13.6058 12.4895 13.5901 13.6903 14.2318 15.2001C14.7955 16.5261 15.8329 18.0009 17.078 19.2465C18.3232 20.4921 19.7976 21.5298 21.1232 22.0936C21.8606 22.4073 22.5243 22.564 23.0884 22.5639C23.6791 22.5639 24.1608 22.3922 24.5038 22.0491C24.891 21.6617 25.2607 20.8914 24.8224 19.4213C24.6348 18.792 24.3126 18.0957 23.8862 17.3875V17.3875Z" fill="white"/>
<path d="M26.4886 9.75608C25.7456 9.03329 24.7617 8.6455 23.7175 8.66462C22.6723 8.6836 21.7016 9.10737 20.9842 9.85786C20.3616 10.5092 19.9838 11.3629 19.9204 12.2619C19.8434 13.3528 19.3925 14.3623 18.6508 15.1044L18.5473 15.2078C18.3618 15.3934 18.3618 15.6941 18.5473 15.8797L20.3991 17.732C20.4882 17.8212 20.6091 17.8712 20.7352 17.8712C20.8612 17.8712 20.9821 17.8211 21.0712 17.7319L21.0941 17.709C21.8634 16.9394 22.9066 16.4767 24.0314 16.406C24.9733 16.3469 25.8599 15.9463 26.5278 15.2782C27.2671 14.5386 27.6703 13.5553 27.663 12.5093C27.6558 11.4636 27.2387 10.4858 26.4886 9.75608V9.75608Z" fill="white"/>
<defs>
<filter id="filter0_d" x="4.59961" y="0.800049" width="29.6132" height="36.4" filterUnits="userSpaceOnUse" color-interpolation-filters="sRGB">
<feFlood flood-opacity="0" result="BackgroundImageFix"/>
<feColorMatrix in="SourceAlpha" type="matrix" values="0 0 0 0 0 0 0 0 0 0 0 0 0 0 0 0 0 0 127 0"/>
<feOffset/>
<feGaussianBlur stdDeviation="1.5"/>
<feColorMatrix type="matrix" values="0 0 0 0 1 0 0 0 0 1 0 0 0 0 1 0 0 0 0.1 0"/>
<feBlend mode="normal" in2="BackgroundImageFix" result="effect1_dropShadow"/>
<feBlend mode="normal" in="SourceGraphic" in2="effect1_dropShadow" result="shape"/>
</filter>
</defs>
</svg>
