<svg width="38" height="38" viewBox="0 0 38 38" fill="none" xmlns="http://www.w3.org/2000/svg">
<g filter="url(#filter0_d)">
<path d="M30.4531 15.6067C30.4531 25.0606 19.7804 33.8163 19.7804 33.8163C19.1568 34.328 18.1362 34.328 17.5126 33.8163C17.5126 33.8163 6.83984 25.0606 6.83984 15.6067C6.83996 9.08603 12.1259 3.80005 18.6465 3.80005C25.1671 3.80005 30.4531 9.08603 30.4531 15.6067Z" fill="white"/>
</g>
<circle cx="18.3924" cy="15.3519" r="9.11999" fill="#17233E"/>
<path d="M18.3923 23.8397L17.2857 22.7332C13.1756 19.0973 10.4883 16.6471 10.4883 13.6436C10.4883 11.1933 12.3852 9.29639 14.8355 9.29639C16.1792 9.29639 17.5228 9.92871 18.3923 10.9562C19.2617 9.92871 20.6054 9.29639 21.9491 9.29639C24.3993 9.29639 26.2963 11.1933 26.2963 13.6436C26.2963 16.6471 23.6089 19.0973 19.4988 22.7332L18.3923 23.8397Z" fill="white"/>
<defs>
<filter id="filter0_d" x="3.83984" y="0.800049" width="29.6133" height="36.4" filterUnits="userSpaceOnUse" color-interpolation-filters="sRGB">
<feFlood flood-opacity="0" result="BackgroundImageFix"/>
<feColorMatrix in="SourceAlpha" type="matrix" values="0 0 0 0 0 0 0 0 0 0 0 0 0 0 0 0 0 0 127 0"/>
<feOffset/>
<feGaussianBlur stdDeviation="1.5"/>
<feColorMatrix type="matrix" values="0 0 0 0 1 0 0 0 0 1 0 0 0 0 1 0 0 0 0.1 0"/>
<feBlend mode="normal" in2="BackgroundImageFix" result="effect1_dropShadow"/>
<feBlend mode="normal" in="SourceGraphic" in2="effect1_dropShadow" result="shape"/>
</filter>
</defs>
</svg>
