<svg width="38" height="38" viewBox="0 0 38 38" fill="none" xmlns="http://www.w3.org/2000/svg">
<g filter="url(#filter0_d)">
<path d="M30.4531 15.6067C30.4531 25.0606 19.7804 33.8163 19.7804 33.8163C19.1568 34.328 18.1362 34.328 17.5126 33.8163C17.5126 33.8163 6.83984 25.0606 6.83984 15.6067C6.83996 9.08603 12.1259 3.80005 18.6465 3.80005C25.1671 3.80005 30.4531 9.08603 30.4531 15.6067Z" fill="white"/>
</g>
<circle cx="18.3924" cy="15.3519" r="9.11999" fill="#17233E"/>
<path d="M26.0982 13.9508C26.3848 13.6356 26.3571 13.1526 26.0365 12.8721L18.9717 6.69041C18.651 6.40998 18.1369 6.41586 17.823 6.70365L10.7341 13.2017C10.4202 13.4895 10.4048 13.9719 10.7 14.2788L10.8778 14.4639C11.1726 14.7708 11.6492 14.8073 11.9416 14.5454L12.4714 14.0709V21.0167C12.4714 21.4429 12.8167 21.7879 13.2425 21.7879H16.0058C16.4316 21.7879 16.7769 21.4429 16.7769 21.0167V16.1575H20.3014V21.0167C20.2953 21.4426 20.6 21.7876 21.0259 21.7876H23.9542C24.38 21.7876 24.7253 21.4426 24.7253 21.0164V14.1687C24.7253 14.1687 24.8717 14.2969 25.0522 14.4556C25.2324 14.614 25.6109 14.487 25.8974 14.1715L26.0982 13.9508Z" fill="white"/>
<defs>
<filter id="filter0_d" x="3.83984" y="0.800049" width="29.6133" height="36.4" filterUnits="userSpaceOnUse" color-interpolation-filters="sRGB">
<feFlood flood-opacity="0" result="BackgroundImageFix"/>
<feColorMatrix in="SourceAlpha" type="matrix" values="0 0 0 0 0 0 0 0 0 0 0 0 0 0 0 0 0 0 127 0"/>
<feOffset/>
<feGaussianBlur stdDeviation="1.5"/>
<feColorMatrix type="matrix" values="0 0 0 0 1 0 0 0 0 1 0 0 0 0 1 0 0 0 0.1 0"/>
<feBlend mode="normal" in2="BackgroundImageFix" result="effect1_dropShadow"/>
<feBlend mode="normal" in="SourceGraphic" in2="effect1_dropShadow" result="shape"/>
</filter>
</defs>
</svg>
