<svg width="38" height="38" viewBox="0 0 38 38" fill="none" xmlns="http://www.w3.org/2000/svg">
<g filter="url(#filter0_d)">
<path d="M30.4531 15.6067C30.4531 25.0606 19.7804 33.8163 19.7804 33.8163C19.1568 34.328 18.1362 34.328 17.5126 33.8163C17.5126 33.8163 6.83984 25.0606 6.83984 15.6067C6.83996 9.08603 12.1259 3.80005 18.6465 3.80005C25.1671 3.80005 30.4531 9.08603 30.4531 15.6067Z" fill="white"/>
</g>
<circle cx="18.3924" cy="15.3519" r="9.11999" fill="#17233E"/>
<path d="M23.2513 5.99023C23.2513 5.99023 21.7452 7.45143 20.1164 8.04054C8.05427 12.4035 13.1414 20.9056 13.3073 20.9336C13.3073 20.9336 13.9837 19.7557 14.8974 19.0839C20.6953 14.8215 21.8738 9.9154 21.8738 9.9154C21.8738 9.9154 20.5727 15.8191 15.4146 19.4925C14.2753 20.3034 13.5039 22.3 13.1774 24.2956C13.1774 24.2956 13.985 23.9693 14.3322 23.881C14.4676 22.9973 14.7508 22.1511 15.2294 21.3952C22.4385 22.2535 24.7996 16.4446 25.1081 14.419C25.8361 9.6351 23.2513 5.99023 23.2513 5.99023Z" fill="white"/>
<defs>
<filter id="filter0_d" x="3.83984" y="0.800049" width="29.6133" height="36.4" filterUnits="userSpaceOnUse" color-interpolation-filters="sRGB">
<feFlood flood-opacity="0" result="BackgroundImageFix"/>
<feColorMatrix in="SourceAlpha" type="matrix" values="0 0 0 0 0 0 0 0 0 0 0 0 0 0 0 0 0 0 127 0"/>
<feOffset/>
<feGaussianBlur stdDeviation="1.5"/>
<feColorMatrix type="matrix" values="0 0 0 0 1 0 0 0 0 1 0 0 0 0 1 0 0 0 0.1 0"/>
<feBlend mode="normal" in2="BackgroundImageFix" result="effect1_dropShadow"/>
<feBlend mode="normal" in="SourceGraphic" in2="effect1_dropShadow" result="shape"/>
</filter>
</defs>
</svg>
