<svg width="38" height="38" viewBox="0 0 38 38" fill="none" xmlns="http://www.w3.org/2000/svg">
<g filter="url(#filter0_d)">
<path d="M30.4531 15.6067C30.4531 25.0606 19.7804 33.8163 19.7804 33.8163C19.1568 34.328 18.1362 34.328 17.5126 33.8163C17.5126 33.8163 6.83984 25.0606 6.83984 15.6067C6.83996 9.08603 12.1259 3.80005 18.6465 3.80005C25.1671 3.80005 30.4531 9.08603 30.4531 15.6067Z" fill="white"/>
</g>
<circle cx="18.3924" cy="15.3519" r="9.11999" fill="#17233E"/>
<g clip-path="url(#clip0)">
<path d="M21.0556 14.8593C20.4264 13.8777 19.3547 13.2915 18.1888 13.2915C17.0229 13.2915 15.9512 13.8777 15.322 14.8593L13.8058 17.2247C13.5542 17.6171 13.4381 18.0705 13.47 18.5356C13.5019 19.0008 13.6789 19.4339 13.9818 19.7886C14.2849 20.1429 14.6854 20.3851 15.14 20.489C15.5946 20.5929 16.0606 20.5485 16.4876 20.3608L16.5162 20.3482C17.5906 19.8853 18.8182 19.8896 19.8898 20.3608C20.1663 20.4824 20.4591 20.5438 20.7547 20.5438C20.9153 20.5438 21.077 20.5256 21.2371 20.4891C21.6917 20.3853 22.0922 20.1431 22.3954 19.7887C22.6984 19.4344 22.8755 19.0011 22.9075 18.5358C22.9395 18.0705 22.8235 17.6172 22.5719 17.2246L21.0556 14.8593Z" fill="white"/>
<path d="M14.214 14.8562C14.6651 14.6829 15.0077 14.3194 15.1789 13.8326C15.3418 13.3694 15.3285 12.8464 15.1412 12.3599C14.9539 11.8737 14.6131 11.4768 14.1817 11.2422C13.7284 10.9959 13.2305 10.9557 12.7802 11.1293C11.8742 11.4777 11.4584 12.5973 11.8535 13.6256C12.1691 14.4442 12.9051 14.9609 13.6493 14.9609C13.8393 14.9609 14.0298 14.9271 14.214 14.8562Z" fill="white"/>
<path d="M17.1564 13.003C18.289 13.003 19.2105 11.9532 19.2105 10.6628C19.2105 9.37206 18.289 8.32202 17.1564 8.32202C16.0239 8.32202 15.1025 9.37206 15.1025 10.6628C15.1025 11.9532 16.0239 13.003 17.1564 13.003Z" fill="white"/>
<path d="M20.7031 13.5779H20.7032C20.8774 13.6358 21.0552 13.6634 21.2322 13.6634C22.0582 13.6634 22.8632 13.0622 23.1703 12.1383C23.3472 11.6064 23.3356 11.0441 23.1376 10.5549C22.9304 10.0428 22.5464 9.67109 22.0563 9.50817C21.566 9.34526 21.0359 9.41322 20.5634 9.69936C20.112 9.9727 19.7661 10.4162 19.5894 10.9481C19.2165 12.07 19.7161 13.2498 20.7031 13.5779V13.5779Z" fill="white"/>
<path d="M25.0287 13.3048L25.0283 13.3045C24.2473 12.7275 23.0791 12.9776 22.4242 13.8623C21.7698 14.7474 21.8722 15.9373 22.6521 16.5147C22.9365 16.7254 23.2726 16.8261 23.6165 16.8261C24.216 16.8261 24.8397 16.5201 25.2567 15.9574C25.9109 15.0723 25.8087 13.8824 25.0287 13.3048V13.3048Z" fill="white"/>
</g>
<defs>
<filter id="filter0_d" x="3.83984" y="0.800049" width="29.6133" height="36.4" filterUnits="userSpaceOnUse" color-interpolation-filters="sRGB">
<feFlood flood-opacity="0" result="BackgroundImageFix"/>
<feColorMatrix in="SourceAlpha" type="matrix" values="0 0 0 0 0 0 0 0 0 0 0 0 0 0 0 0 0 0 127 0"/>
<feOffset/>
<feGaussianBlur stdDeviation="1.5"/>
<feColorMatrix type="matrix" values="0 0 0 0 1 0 0 0 0 1 0 0 0 0 1 0 0 0 0.1 0"/>
<feBlend mode="normal" in2="BackgroundImageFix" result="effect1_dropShadow"/>
<feBlend mode="normal" in="SourceGraphic" in2="effect1_dropShadow" result="shape"/>
</filter>
<clipPath id="clip0">
<rect width="13.984" height="13.984" fill="white" transform="translate(11.7041 7.448)"/>
</clipPath>
</defs>
</svg>
