<svg width="38" height="38" viewBox="0 0 38 38" fill="none" xmlns="http://www.w3.org/2000/svg">
<g filter="url(#filter0_d)">
<path d="M30.4531 15.6067C30.4531 25.0606 19.7804 33.8163 19.7804 33.8163C19.1568 34.328 18.1362 34.328 17.5126 33.8163C17.5126 33.8163 6.83984 25.0606 6.83984 15.6067C6.83996 9.08603 12.1259 3.80005 18.6465 3.80005C25.1671 3.80005 30.4531 9.08603 30.4531 15.6067Z" fill="white"/>
</g>
<path d="M27.7663 16.568C27.7663 21.6048 23.6832 25.688 18.6464 25.688C13.6095 25.688 9.52637 21.6048 9.52637 16.568C9.52637 11.5312 13.6095 7.448 18.6464 7.448C23.6832 7.448 27.7663 11.5312 27.7663 16.568Z" fill="#17233E"/>
<path d="M11.731 13.6084H15.6971V9.65196C15.6971 9.10657 16.1387 8.66382 16.6839 8.66382H20.6312C21.1755 8.66382 21.617 9.10645 21.617 9.65196V13.6075H25.5623C26.1086 13.6075 26.5502 14.0492 26.5502 14.5956V18.5491C26.5502 19.0965 26.1086 19.5391 25.5623 19.5391H21.617V23.4837C21.617 24.0301 21.1754 24.4718 20.6312 24.4718H16.6839C16.1387 24.4718 15.6971 24.0301 15.6971 23.4837V19.5391H11.731C11.1848 19.5391 10.7422 19.0965 10.7422 18.5491V14.5956C10.7422 14.0501 11.1848 13.6084 11.731 13.6084Z" fill="white"/>
<defs>
<filter id="filter0_d" x="3.83984" y="0.800049" width="29.6133" height="36.4" filterUnits="userSpaceOnUse" color-interpolation-filters="sRGB">
<feFlood flood-opacity="0" result="BackgroundImageFix"/>
<feColorMatrix in="SourceAlpha" type="matrix" values="0 0 0 0 0 0 0 0 0 0 0 0 0 0 0 0 0 0 127 0"/>
<feOffset/>
<feGaussianBlur stdDeviation="1.5"/>
<feColorMatrix type="matrix" values="0 0 0 0 1 0 0 0 0 1 0 0 0 0 1 0 0 0 0.1 0"/>
<feBlend mode="normal" in2="BackgroundImageFix" result="effect1_dropShadow"/>
<feBlend mode="normal" in="SourceGraphic" in2="effect1_dropShadow" result="shape"/>
</filter>
</defs>
</svg>
