<svg width="38" height="38" viewBox="0 0 38 38" fill="none" xmlns="http://www.w3.org/2000/svg">
<path d="M31.2132 15.6067C31.2132 25.0606 20.5405 33.8163 20.5405 33.8163C19.9169 34.328 18.8963 34.328 18.2727 33.8163C18.2727 33.8163 7.59998 25.0606 7.59998 15.6067C7.60009 9.08603 12.8861 3.80005 19.4066 3.80005C25.9272 3.80005 31.2132 9.08603 31.2132 15.6067Z" fill="white"/>
<path d="M28.1199 15.3519C28.1199 20.3887 24.0367 24.4719 18.9999 24.4719C13.963 24.4719 9.87988 20.3887 9.87988 15.3519C9.87988 10.3151 13.963 6.23193 18.9999 6.23193C24.0367 6.23193 28.1199 10.3151 28.1199 15.3519Z" fill="#08CEC2"/>
<path d="M19.5688 19.6687C19.4714 19.8051 19.3629 19.9341 19.2434 20.0536C18.6638 20.6335 17.8931 20.9528 17.0733 20.9528C16.2536 20.9528 15.4829 20.6335 14.9033 20.0536C13.7068 18.8568 13.7068 16.9094 14.9033 15.7125C15.0237 15.5921 15.1521 15.4831 15.2874 15.3858C14.9815 14.9023 14.7232 14.4187 14.5253 13.9532C14.5182 13.9364 14.5116 13.9198 14.5046 13.9031C14.1624 14.1056 13.8456 14.3514 13.5575 14.6395C11.6942 16.5034 11.6942 19.5361 13.5575 21.4C14.4601 22.3029 15.6602 22.8001 16.9368 22.8001C18.2133 22.8001 19.4134 22.3029 20.3161 21.4C20.6002 21.1157 20.8469 20.7961 21.0507 20.4518C21.0343 20.445 21.018 20.4385 21.0016 20.4315C20.536 20.2335 20.0524 19.9749 19.5688 19.6687V19.6687Z" fill="white"/>
<path d="M23.7485 15.5372C23.039 15.6204 22.3886 15.9279 21.9016 16.415L21.8824 16.4344C21.6438 16.673 21.3275 16.8042 20.991 16.8042C20.991 16.8042 20.9909 16.8042 20.9908 16.8042C20.6542 16.8042 20.3379 16.6732 20.1 16.4351L18.4798 14.8144C17.989 14.3233 17.989 13.5245 18.4798 13.0335L18.5704 12.9429C19.0283 12.4848 19.3231 11.873 19.414 11.2028C18.7935 10.8293 18.1835 10.5474 17.6328 10.3839C16.3504 10.0029 15.678 10.3262 15.3398 10.6645C14.7531 11.2514 14.7393 12.3021 15.3009 13.6232C15.7941 14.7834 16.7018 16.074 17.7913 17.1638C18.8809 18.2537 20.171 19.1617 21.3309 19.6551C21.9762 19.9296 22.5568 20.0667 23.0505 20.0666C23.5674 20.0666 23.9888 19.9163 24.2889 19.6161C24.6278 19.2772 24.9512 18.6031 24.5677 17.3168C24.4035 16.7662 24.1216 16.1569 23.7485 15.5372V15.5372Z" fill="white"/>
<path d="M26.0258 8.85968C25.3757 8.22724 24.5148 7.88791 23.6011 7.90464C22.6866 7.92126 21.8372 8.29206 21.2095 8.94874C20.6647 9.51863 20.3341 10.2657 20.2786 11.0523C20.2113 12.0069 19.8167 12.8902 19.1677 13.5395L19.0772 13.63C18.9149 13.7924 18.9149 14.0555 19.0772 14.2179L20.6975 15.8387C20.7755 15.9167 20.8812 15.9605 20.9916 15.9605C21.1019 15.9605 21.2076 15.9166 21.2856 15.8386L21.3056 15.8185C21.9788 15.1451 22.8916 14.7403 23.8758 14.6784C24.7 14.6267 25.4757 14.2762 26.0602 13.6916C26.7071 13.0444 27.0598 12.184 27.0535 11.2688C27.0471 10.3537 26.6822 9.49818 26.0258 8.85968V8.85968Z" fill="white"/>
</svg>
