<svg width="38" height="38" viewBox="0 0 38 38" fill="none" xmlns="http://www.w3.org/2000/svg">
<path d="M30.4532 15.6067C30.4532 25.0606 19.7805 33.8163 19.7805 33.8163C19.1569 34.328 18.1363 34.328 17.5127 33.8163C17.5127 33.8163 6.83997 25.0606 6.83997 15.6067C6.84008 9.08603 12.1261 3.80005 18.6466 3.80005C25.1672 3.80005 30.4532 9.08603 30.4532 15.6067Z" fill="white"/>
<circle cx="18.392" cy="15.3519" r="9.11999" fill="#FD4FAD"/>
<path d="M18.3917 23.8397L17.2851 22.7332C13.175 19.0973 10.4877 16.6471 10.4877 13.6436C10.4877 11.1933 12.3846 9.29639 14.8349 9.29639C16.1785 9.29639 17.5222 9.92871 18.3917 10.9562C19.2611 9.92871 20.6048 9.29639 21.9485 9.29639C24.3987 9.29639 26.2956 11.1933 26.2956 13.6436C26.2956 16.6471 23.6083 19.0973 19.4982 22.7332L18.3917 23.8397Z" fill="white"/>
</svg>
