<svg width="38" height="38" viewBox="0 0 38 38" fill="none" xmlns="http://www.w3.org/2000/svg">
<path d="M30.4532 15.6067C30.4532 25.0606 19.7805 33.8163 19.7805 33.8163C19.1569 34.328 18.1363 34.328 17.5127 33.8163C17.5127 33.8163 6.83997 25.0606 6.83997 15.6067C6.84008 9.08603 12.1261 3.80005 18.6466 3.80005C25.1672 3.80005 30.4532 9.08603 30.4532 15.6067Z" fill="white"/>
<circle cx="18.392" cy="15.3519" r="9.11999" fill="#1B24FF"/>
<path d="M26.0976 13.9508C26.3842 13.6356 26.3565 13.1526 26.0359 12.8721L18.9711 6.69041C18.6504 6.40998 18.1363 6.41586 17.8223 6.70365L10.7335 13.2017C10.4196 13.4895 10.4042 13.9719 10.6994 14.2788L10.8771 14.4639C11.172 14.7708 11.6486 14.8073 11.941 14.5454L12.4708 14.0709V21.0167C12.4708 21.4429 12.8161 21.7879 13.2419 21.7879H16.0051C16.431 21.7879 16.7763 21.4429 16.7763 21.0167V16.1575H20.3008V21.0167C20.2947 21.4426 20.5994 21.7876 21.0252 21.7876H23.9536C24.3794 21.7876 24.7247 21.4426 24.7247 21.0164V14.1687C24.7247 14.1687 24.8711 14.2969 25.0516 14.4556C25.2318 14.614 25.6103 14.487 25.8968 14.1715L26.0976 13.9508Z" fill="white"/>
</svg>
