<svg width="38" height="38" viewBox="0 0 38 38" fill="none" xmlns="http://www.w3.org/2000/svg">
<path d="M30.4532 15.6067C30.4532 25.0606 19.7805 33.8163 19.7805 33.8163C19.1569 34.328 18.1363 34.328 17.5127 33.8163C17.5127 33.8163 6.83997 25.0606 6.83997 15.6067C6.84008 9.08603 12.1261 3.80005 18.6466 3.80005C25.1672 3.80005 30.4532 9.08603 30.4532 15.6067Z" fill="white"/>
<circle cx="18.392" cy="15.3519" r="9.11999" fill="#6AD300"/>
<path d="M23.2507 6.75024C23.2507 6.75024 21.7446 8.21144 20.1158 8.80055C8.05366 13.1635 13.1408 21.6656 13.3067 21.6936C13.3067 21.6936 13.9831 20.5157 14.8968 19.8439C20.6947 15.5816 21.8732 10.6754 21.8732 10.6754C21.8732 10.6754 20.5721 16.5791 15.414 20.2525C14.2747 21.0634 13.5033 23.06 13.1768 25.0556C13.1768 25.0556 13.9843 24.7293 14.3316 24.641C14.467 23.7573 14.7501 22.9111 15.2288 22.1552C22.4379 23.0135 24.799 17.2046 25.1075 15.179C25.8355 10.3951 23.2507 6.75024 23.2507 6.75024Z" fill="white"/>
</svg>
