<svg width="38" height="38" viewBox="0 0 38 38" fill="none" xmlns="http://www.w3.org/2000/svg">
<path d="M30.4532 15.6067C30.4532 25.0606 19.7805 33.8163 19.7805 33.8163C19.1569 34.328 18.1363 34.328 17.5127 33.8163C17.5127 33.8163 6.83997 25.0606 6.83997 15.6067C6.84008 9.08603 12.1261 3.80005 18.6466 3.80005C25.1672 3.80005 30.4532 9.08603 30.4532 15.6067Z" fill="white"/>
<circle cx="18.3921" cy="15.3519" r="9.11999" fill="#FF7A00"/>
<g clip-path="url(#clip0)">
<path d="M21.0555 14.8593C20.4263 13.8777 19.3546 13.2915 18.1887 13.2915C17.0228 13.2915 15.9511 13.8777 15.3219 14.8593L13.8056 17.2247C13.5541 17.6171 13.438 18.0705 13.4699 18.5356C13.5018 19.0008 13.6788 19.4339 13.9817 19.7886C14.2848 20.1429 14.6853 20.3851 15.1399 20.489C15.5945 20.5929 16.0605 20.5485 16.4875 20.3608L16.5161 20.3482C17.5904 19.8853 18.8181 19.8896 19.8897 20.3608C20.1661 20.4824 20.459 20.5438 20.7545 20.5438C20.9152 20.5438 21.0768 20.5256 21.237 20.4891C21.6916 20.3853 22.0921 20.1431 22.3953 19.7887C22.6983 19.4344 22.8754 19.0011 22.9074 18.5358C22.9394 18.0705 22.8233 17.6172 22.5718 17.2246L21.0555 14.8593Z" fill="white"/>
<path d="M14.2141 14.8561C14.6652 14.6828 15.0079 14.3193 15.179 13.8325C15.3419 13.3693 15.3286 12.8463 15.1413 12.3598C14.954 11.8736 14.6132 11.4767 14.1818 11.2421C13.7286 10.9957 13.2306 10.9556 12.7803 11.1292C11.8743 11.4775 11.4585 12.5971 11.8536 13.6255C12.1692 14.444 12.9052 14.9607 13.6494 14.9607C13.8394 14.9607 14.03 14.927 14.2141 14.8561Z" fill="white"/>
<path d="M17.156 13.003C18.2887 13.003 19.2101 11.9532 19.2101 10.6628C19.2101 9.37206 18.2887 8.32202 17.156 8.32202C16.0235 8.32202 15.1022 9.37206 15.1022 10.6628C15.1022 11.9532 16.0235 13.003 17.156 13.003Z" fill="white"/>
<path d="M20.7036 13.5779H20.7037C20.8779 13.6358 21.0557 13.6634 21.2327 13.6634C22.0587 13.6634 22.8636 13.0622 23.1708 12.1383C23.3477 11.6064 23.3361 11.0441 23.138 10.5549C22.9309 10.0428 22.5469 9.67109 22.0567 9.50817C21.5665 9.34526 21.0364 9.41322 20.5638 9.69936C20.1124 9.9727 19.7666 10.4162 19.5899 10.9481C19.217 12.07 19.7166 13.2498 20.7036 13.5779V13.5779Z" fill="white"/>
<path d="M25.0293 13.3048L25.029 13.3045C24.2479 12.7275 23.0797 12.9776 22.4248 13.8623C21.7705 14.7474 21.8728 15.9373 22.6527 16.5147C22.9371 16.7254 23.2732 16.8261 23.6171 16.8261C24.2166 16.8261 24.8403 16.5201 25.2573 15.9574C25.9115 15.0723 25.8093 13.8824 25.0293 13.3048V13.3048Z" fill="white"/>
</g>
<defs>
<clipPath id="clip0">
<rect width="13.984" height="13.984" fill="white" transform="translate(11.7042 7.448)"/>
</clipPath>
</defs>
</svg>
