<svg width="38" height="38" viewBox="0 0 38 38" fill="none" xmlns="http://www.w3.org/2000/svg">
<path d="M30.4532 15.6067C30.4532 25.0606 19.7805 33.8163 19.7805 33.8163C19.1569 34.328 18.1363 34.328 17.5127 33.8163C17.5127 33.8163 6.83997 25.0606 6.83997 15.6067C6.84008 9.08603 12.1261 3.80005 18.6466 3.80005C25.1672 3.80005 30.4532 9.08603 30.4532 15.6067Z" fill="white"/>
<circle cx="18.392" cy="16.8722" r="9.11999" fill="#FF4747"/>
<path d="M11.7312 13.6084H15.6973V9.65196C15.6973 9.10657 16.1389 8.66382 16.6841 8.66382H20.6313C21.1756 8.66382 21.6171 9.10645 21.6171 9.65196V13.6075H25.5625C26.1087 13.6075 26.5503 14.0492 26.5503 14.5956V18.5491C26.5503 19.0965 26.1087 19.5391 25.5625 19.5391H21.6171V23.4837C21.6171 24.0301 21.1755 24.4718 20.6313 24.4718H16.6841C16.1389 24.4718 15.6973 24.0301 15.6973 23.4837V19.5391H11.7312C11.1849 19.5391 10.7423 19.0965 10.7423 18.5491V14.5956C10.7423 14.0501 11.1849 13.6084 11.7312 13.6084Z" fill="white"/>
</svg>
